# xmcd CD database file
#
# Track frame offsets:
#	150
#	21165
#	42833
#	63805
#	89683
#	105010
#	126590
#	149963
#	165335
#	186955
#
# Disc length: 2828 seconds
#
# Revision: 0
# Processed by: cddbd v1.5PL3 Copyright (c) Steve Scherf et al.
# Submitted via: CDex 1.50beta8a
#
DISCID=880b0a0a
DTITLE=小堺一機 - マージナル
DYEAR=1989
DGENRE=Japanese Pop
TTITLE0=MARGINAL
TTITLE1=SETOGIWA
TTITLE2=ふたりの進化論
TTITLE3=サヨナラ
TTITLE4=夢みる頃を過ぎても
TTITLE5=時間の雫
TTITLE6=昔みたい
TTITLE7=TOKYO
TTITLE8=雨の言葉
TTITLE9=STARRY NIGHT
EXTD=YEAR: 1989
EXTT0=
EXTT1=
EXTT2=
EXTT3=
EXTT4=
EXTT5=
EXTT6=
EXTT7=
EXTT8=
EXTT9=
PLAYORDER=
